<svg width="509" height="163" viewBox="0 0 509 163" fill="none" xmlns="http://www.w3.org/2000/svg">
<path d="M86.4 148.8C85.3333 148.8 84.4667 148.6 83.8 148.2C83.1333 147.933 82.8667 147.267 83 146.2C83 145.8 83.2 145.2 83.6 144.4C84 143.6 84.2667 143 84.4 142.6C85.0667 140.733 85.6667 138.867 86.2 137C86.7333 135 87.2667 133.133 87.8 131.4C89.6667 124.067 91.4 116.8 93 109.6C94.6 102.267 95.8667 94.9333 96.8 87.6C97.3333 83.3333 98 77.6 98.8 70.4C99.6 63.0667 100 56 100 49.2C100 46.5333 99.9333 44.0667 99.8 41.8C99.6667 39.4 99.3333 37.2667 98.8 35.4C94.4 35.4 90 35.4 85.6 35.4C81.2 35.2667 76.8667 35.2 72.6 35.2C70.6 35.2 67.8 35.3333 64.2 35.6C60.7333 35.8667 57.1333 36.4667 53.4 37.4C49.8 38.3333 46.8 39.8667 44.4 42C42 44.1333 40.9333 47 41.2 50.6C41.3333 51.6667 41.7333 53.1333 42.4 55C43.0667 56.7333 43.5333 57.8 43.8 58.2L41.6 59.8C40.8 58.3333 39.8 56.6667 38.6 54.8C37.4 52.8 36.3333 50.8667 35.4 49C34.4667 47.1333 33.9333 45.7333 33.8 44.8C33.6667 43.4667 33.7333 41.7333 34 39.6C34.2667 37.4667 35.3333 35.6 37.2 34C39.2 32.2667 41.9333 31.1333 45.4 30.6C49 30.0667 52.6667 29.8 56.4 29.8C60 29.8 63.4667 29.9333 66.8 30.2C70.1333 30.4667 72.8667 30.6 75 30.6C75 30.6 76.5333 30.6 79.6 30.6C82.6667 30.6 86.5333 30.6 91.2 30.6C96 30.4667 101.067 30.4 106.4 30.4C111.733 30.4 116.6 30.4 121 30.4L116.8 35.6H102.8C104.8 39.3333 106.067 44.5333 106.6 51.2C107.267 57.8667 107.6 64.2667 107.6 70.4C107.6 72.9333 107.6 75.3333 107.6 77.6C107.6 79.8667 107.533 81.8667 107.4 83.6C107.133 89.8667 106.267 97.4 104.8 106.2C103.333 115 101.467 123.333 99.2 131.2C104.667 123.467 111.333 114.267 119.2 103.6C127.2 92.9333 136.333 81.8667 146.6 70.4C157 58.8 168.467 47.8 181 37.4C183.533 35.2667 186.867 32.8667 191 30.2C195.133 27.5333 199.533 25.2667 204.2 23.4C208.867 21.4 213.267 20.4 217.4 20.4C221.267 20.4 223.933 21.0667 225.4 22.4C227 23.7333 227.8 25.4667 227.8 27.6C227.8 30.1333 227 32.9333 225.4 36C223.933 39.0667 222.8 41.6 222 43.6C221.867 44 221.267 44.2667 220.2 44.4C219.133 44.5333 218.667 44.3333 218.8 43.8C219.067 42.7333 219.333 41.4667 219.6 40C220 38.4 220.2 36.8 220.2 35.2C220.2 33.0667 219.8 31.1333 219 29.4C218.2 27.6667 216.667 26.6667 214.4 26.4C214 26.2667 213.6 26.2 213.2 26.2C212.8 26.2 212.4 26.2 212 26.2C208.133 26.2 203.933 27.5333 199.4 30.2C195 32.7333 189.867 36.3333 184 41C172.8 49.9333 162.133 59.8 152 70.6C142 81.2667 132.4 92.4667 123.2 104.2C118.4 110.2 113.733 116.267 109.2 122.4C104.667 128.533 100.467 134.933 96.6 141.6C96.3333 142.133 96.0667 142.733 95.8 143.4C95.6667 144.2 95.4667 144.8 95.2 145.2C94.9333 145.467 94.1333 145.867 92.8 146.4C91.4667 147.067 90.1333 147.6 88.8 148C87.6 148.533 86.8 148.8 86.4 148.8Z" fill="black"/>
<mask id="mask0_17_70" style="mask-type:alpha" maskUnits="userSpaceOnUse" x="-5" y="-4" width="231" height="180">
<rect x="16.6395" y="60.5804" width="194" height="48" transform="rotate(0.763373 16.6395 60.5804)" fill="#D9D9D9"/>
<rect x="31.6395" y="-4" width="194" height="48" transform="rotate(0.763373 31.6395 -4)" fill="#D9D9D9"/>
<rect x="-4.36047" y="125.161" width="194" height="48" transform="rotate(0.763373 -4.36047 125.161)" fill="#D9D9D9"/>
</mask>
<g mask="url(#mask0_17_70)">
<g filter="url(#filter0_i_17_70)">
<path d="M97.2813 150C90.6146 150 83.9479 149.417 77.2813 148.25C70.6146 147.25 64.5313 145.333 59.0313 142.5C53.6979 139.667 49.3646 135.667 46.0313 130.5C42.6979 125.333 41.0313 118.667 41.0313 110.5C41.0313 103.667 42.3646 95.8333 45.0313 87C47.8646 78 52.0313 69 57.5313 60C63.0313 50.8333 69.8646 42.3333 78.0313 34.5C86.3646 26.6667 95.9479 20.4167 106.781 15.75C117.781 10.9167 130.115 8.49999 143.781 8.49999C163.781 8.49999 178.365 11.75 187.531 18.25C196.698 24.5833 201.281 34.5 201.281 48C201.281 61.1667 198.531 73.8333 193.031 86C187.698 98.1667 180.198 109.083 170.531 118.75C161.031 128.417 150.031 136.083 137.531 141.75C125.031 147.25 111.615 150 97.2813 150ZM95.2813 146.25C105.448 146.25 115.115 144.333 124.281 140.5C133.615 136.5 142.031 131.167 149.531 124.5C157.198 117.667 163.781 109.917 169.281 101.25C174.948 92.5833 179.281 83.5 182.281 74C185.448 64.5 187.031 55.0833 187.031 45.75C187.031 35.4167 183.781 27.25 177.281 21.25C170.781 15.25 159.781 12.25 144.281 12.25C135.448 12.25 126.615 14.5 117.781 19C109.115 23.3333 100.948 29.1667 93.2813 36.5C85.7813 43.8333 79.0313 51.9167 73.0313 60.75C67.1979 69.5833 62.6146 78.5 59.2813 87.5C55.9479 96.5 54.2813 104.917 54.2813 112.75C54.2813 123.25 57.3646 131.5 63.5313 137.5C69.8646 143.333 80.4479 146.25 95.2813 146.25Z" fill="black"/>
</g>
</g>
<path d="M284.879 81.1C282.213 80.5 280.346 79.8667 279.279 79.2C278.213 78.5333 277.513 77.6667 277.179 76.6C276.913 75.4667 276.713 73.6 276.579 71C276.446 67.0667 276.113 60.9333 275.579 52.6C275.513 51.2667 275.279 46.9667 274.879 39.7C274.479 32.4333 274.279 25.4667 274.279 18.8C274.279 17.2 274.979 15.8667 276.379 14.8C277.846 13.6667 279.679 13.1 281.879 13.1C283.879 13.1 285.346 13.6667 286.279 14.8C287.213 15.8667 287.679 17.5333 287.679 19.8L287.779 59.6V69.5C293.113 57.7 299.213 45.3333 306.079 32.4C312.946 19.4 317.346 12.9 319.279 12.9C321.746 12.9 323.746 13.4667 325.279 14.6C326.813 15.7333 327.613 17.0667 327.679 18.6C327.279 19.4667 325.646 22.5333 322.779 27.8L318.079 36.1L314.679 42.4C307.946 54.7333 303.246 63.2333 300.579 67.9C297.913 72.5667 295.679 75.8667 293.879 77.8C293.079 78.7333 291.846 79.5 290.179 80.1C288.579 80.7667 286.813 81.1 284.879 81.1ZM339.858 81.1C333.992 81.1 329.425 79.1 326.158 75.1C322.892 71.1 321.258 66 321.258 59.8C321.258 54.6 322.492 49.7 324.958 45.1C327.492 40.5 330.925 36.8 335.258 34C339.592 31.2 344.358 29.8 349.558 29.8C354.692 29.8 358.892 31.5 362.158 34.9C365.492 38.2333 367.158 43.1667 367.158 49.7C367.158 54.3 365.892 59.0667 363.358 64C360.825 68.9333 357.425 73.0333 353.158 76.3C348.958 79.5 344.525 81.1 339.858 81.1ZM341.358 73.1C343.492 73.1 345.625 71.7667 347.758 69.1C349.958 66.4333 351.758 63.0667 353.158 59C354.558 54.9333 355.258 50.9667 355.258 47.1C355.258 41.1667 352.792 38.2 347.858 38.2C345.125 38.2 342.625 39.5 340.358 42.1C338.092 44.7 336.292 47.9333 334.958 51.8C333.625 55.6 332.958 59.1667 332.958 62.5C332.958 64.4333 333.392 66.2333 334.258 67.9C335.125 69.5 336.192 70.7667 337.458 71.7C338.792 72.6333 340.092 73.1 341.358 73.1ZM382.939 19.6C382.939 17.5333 383.573 15.7 384.839 14.1C386.173 12.5 388.006 11.7 390.339 11.7C392.806 11.7 394.939 12.4667 396.739 14C398.606 15.5333 399.539 17.2667 399.539 19.2C399.539 21.1333 398.606 22.8 396.739 24.2C394.873 25.6 392.706 26.3 390.239 26.3C387.839 26.3 386.006 25.7 384.739 24.5C383.539 23.2333 382.939 21.6 382.939 19.6ZM373.439 72.3C373.439 71.1 376.406 59.1 382.339 36.3L381.739 32.6C381.739 31.8667 382.173 31.3 383.039 30.9C383.906 30.5 385.573 30.3 388.039 30.3C389.973 30.3 391.373 30.8333 392.239 31.9C393.173 32.9667 393.639 34.2333 393.639 35.7C393.639 36.1 393.573 36.6333 393.439 37.3L384.539 73.3L385.139 77C385.139 77.7333 384.706 78.3 383.839 78.7C382.973 79.1 381.306 79.3 378.839 79.3C376.639 79.3 375.206 78.6667 374.539 77.4C373.873 76.0667 373.506 74.3667 373.439 72.3ZM442.676 67.2C441.876 69.3333 440.31 71.5 437.976 73.7C435.643 75.8333 432.676 77.6 429.076 79C425.476 80.4 421.543 81.1 417.276 81.1C410.743 81.1 405.91 79.7667 402.776 77.1C399.643 74.3667 398.076 70.8333 398.076 66.5C398.076 60.2333 399.676 54.4333 402.876 49.1C406.076 43.7 410.376 39.4333 415.776 36.3C421.176 33.1667 426.943 31.6 433.076 31.6C436.876 31.6 440.01 32.7333 442.476 35C445.01 37.2 446.276 40.2 446.276 44C446.276 45.4667 445.676 46.7 444.476 47.7C443.276 48.6333 441.676 49.1 439.676 49.1C438.076 49.1 436.976 48.7333 436.376 48C435.843 47.2667 435.576 46.3 435.576 45.1L435.676 42.8C435.676 42 435.243 41.3667 434.376 40.9C433.51 40.3667 432.576 40.1 431.576 40.1C429.51 40.1 426.71 41.3333 423.176 43.8C419.71 46.2667 416.643 49.5333 413.976 53.6C411.376 57.6 410.076 61.9 410.076 66.5C410.076 68.3667 410.81 69.8 412.276 70.8C413.743 71.8 415.91 72.3 418.776 72.3C420.576 72.3 422.643 71.9333 424.976 71.2C427.31 70.4667 428.776 69.5333 429.376 68.4C431.643 64.2667 433.71 62.2 435.576 62.2C438.31 62.2 440.143 62.7333 441.076 63.8C442.076 64.8 442.61 65.9333 442.676 67.2ZM467.479 81.1C460.879 81.1 456.045 79.8 452.979 77.2C449.979 74.6 448.479 71.1333 448.479 66.8C448.479 60.3333 449.812 54.4667 452.479 49.2C455.145 43.8667 458.845 39.7 463.579 36.7C468.312 33.6333 473.712 32.1 479.779 32.1C483.579 32.1 486.745 33.1667 489.279 35.3C491.879 37.4333 493.179 40.6 493.179 44.8C493.179 49.2667 491.712 52.7667 488.779 55.3C485.912 57.8333 482.145 59.6667 477.479 60.8C472.879 61.8667 467.079 62.7333 460.079 63.4C459.879 64.2667 459.779 65.3 459.779 66.5C459.779 68.3667 460.579 69.8 462.179 70.8C463.779 71.8 466.012 72.3 468.879 72.3C470.945 72.3 473.345 71.8667 476.079 71C478.879 70.1333 481.012 68.7 482.479 66.7C483.345 65.5667 484.345 64.6667 485.479 64C486.679 63.3333 487.845 63 488.979 63C490.045 63 490.912 63.3667 491.579 64.1C492.312 64.7667 492.679 65.8 492.679 67.2C491.945 69.3333 490.412 71.5 488.079 73.7C485.745 75.8333 482.779 77.6 479.179 79C475.645 80.4 471.745 81.1 467.479 81.1ZM462.679 54.2C466.945 54.1333 471.312 53.3333 475.779 51.8C480.245 50.2 482.479 47.4333 482.479 43.5C482.479 42.5667 482.045 41.8667 481.179 41.4C480.312 40.8667 479.379 40.6 478.379 40.6C476.445 40.6 474.412 41.3333 472.279 42.8C470.212 44.2 468.312 45.9667 466.579 48.1C464.845 50.1667 463.545 52.2 462.679 54.2Z" fill="black"/>
<path d="M285.054 147.12C281.561 147.707 278.774 148.24 276.694 148.72C276.054 149.733 275.641 150.413 275.454 150.76C274.894 151.747 274.388 152.573 273.934 153.24C273.508 153.88 273.041 154.453 272.534 154.96C271.974 155.52 271.508 155.92 271.134 156.16C270.788 156.4 270.374 156.52 269.894 156.52C269.094 156.52 268.388 156.347 267.774 156C267.188 155.627 266.894 155.253 266.894 154.88C266.948 154.827 267.241 154.24 267.774 153.12C268.308 151.973 269.294 150.547 270.734 148.84C270.734 148.627 270.668 148.36 270.534 148.04C270.401 147.72 270.334 147.533 270.334 147.48C270.334 146.707 271.548 145.773 273.974 144.68C275.334 142.653 276.761 140.653 278.254 138.68C279.774 136.707 281.628 134.373 283.814 131.68C284.348 131.013 285.028 130.467 285.854 130.04C286.681 129.613 287.508 129.4 288.334 129.4C289.188 129.4 289.828 129.48 290.254 129.64C290.681 129.8 290.948 130.013 291.054 130.28C291.188 130.547 291.254 130.92 291.254 131.4C291.148 132.2 291.081 132.8 291.054 133.2C290.654 136.427 290.348 139.2 290.134 141.52C289.948 143.813 289.854 146.107 289.854 148.4C289.854 150.507 289.948 152.44 290.134 154.2C290.054 154.84 289.774 155.427 289.294 155.96C288.814 156.467 288.254 156.72 287.614 156.72C286.388 156.72 285.574 156.413 285.174 155.8C284.801 155.187 284.614 154.147 284.614 152.68C284.614 151.613 284.761 149.76 285.054 147.12ZM279.854 144.12C280.334 144.013 281.068 143.893 282.054 143.76L285.254 143.28C285.494 139.573 285.774 136.907 286.094 135.28C285.054 136.507 282.974 139.453 279.854 144.12ZM312.304 126.36C312.411 125.96 312.718 125.64 313.224 125.4C313.758 125.133 314.318 125 314.904 125C315.384 125 315.904 125.107 316.464 125.32C317.024 125.533 317.304 125.84 317.304 126.24L314.784 136.08C312.571 144.693 311.278 149.947 310.904 151.84C310.744 152.64 310.664 153.253 310.664 153.68C310.664 154.4 310.744 155.107 310.904 155.8C310.851 155.96 310.638 156.12 310.264 156.28C309.918 156.44 309.598 156.52 309.304 156.52C308.771 156.52 308.184 156.453 307.544 156.32C306.904 156.187 306.504 156.04 306.344 155.88C306.104 155.667 305.984 155.24 305.984 154.6C305.984 154.12 306.038 153.667 306.144 153.24C305.584 154.04 304.731 154.707 303.584 155.24C302.464 155.747 301.558 156 300.864 156C296.784 156 294.744 153.8 294.744 149.4C294.744 147.48 295.171 145.56 296.024 143.64C296.904 141.72 298.144 140.133 299.744 138.88C301.371 137.627 303.251 137 305.384 137C305.971 137 306.624 137.24 307.344 137.72C308.064 138.173 308.651 138.693 309.104 139.28C309.691 136.8 310.211 134.733 310.664 133.08C310.878 132.2 311.118 131.2 311.384 130.08C311.678 128.933 311.984 127.693 312.304 126.36ZM308.224 143C308.064 142.413 307.678 141.88 307.064 141.4C306.478 140.893 305.998 140.64 305.624 140.64C304.398 140.64 303.251 141.04 302.184 141.84C301.118 142.64 300.264 143.68 299.624 144.96C299.011 146.24 298.704 147.56 298.704 148.92C298.704 149.933 298.891 150.84 299.264 151.64C299.638 152.44 300.211 152.84 300.984 152.84C301.651 152.84 302.424 152.627 303.304 152.2C304.211 151.747 305.011 151.173 305.704 150.48C306.398 149.76 306.824 149.027 306.984 148.28L308.224 143ZM318.878 138.92C318.958 138.333 319.051 137.88 319.158 137.56C319.265 137.24 319.465 136.987 319.758 136.8C320.078 136.613 320.545 136.52 321.158 136.52C322.091 136.52 322.718 136.787 323.038 137.32C323.358 137.827 323.558 138.493 323.638 139.32C323.585 139.56 323.545 139.76 323.518 139.92C323.518 140.08 323.491 140.267 323.438 140.48C324.345 139.413 325.211 138.6 326.038 138.04C326.891 137.48 327.878 137.2 328.998 137.2C330.251 137.2 331.265 137.533 332.038 138.2C332.838 138.84 333.305 139.6 333.438 140.48C334.185 139.28 335.131 138.44 336.278 137.96C337.425 137.453 338.598 137.2 339.798 137.2C341.345 137.2 342.438 137.573 343.078 138.32C343.745 139.067 344.078 140.027 344.078 141.2C344.078 141.573 344.025 142.107 343.918 142.8C343.225 146.347 342.518 150.053 341.798 153.92C341.611 154.88 341.411 155.6 341.198 156.08C340.985 156.587 340.665 156.96 340.238 157.2C339.811 157.44 339.198 157.56 338.398 157.56C337.758 157.56 337.291 157.347 336.998 156.92C336.705 156.493 336.558 155.96 336.558 155.32C336.558 155.107 336.585 154.813 336.638 154.44C337.011 152.467 337.478 150.24 338.038 147.76C338.091 147.52 338.278 146.693 338.598 145.28C338.918 143.867 339.078 142.96 339.078 142.56C339.078 142 338.958 141.613 338.718 141.4C338.478 141.16 338.198 141.04 337.878 141.04C337.211 141.04 336.371 141.333 335.358 141.92C334.371 142.507 333.678 143.04 333.278 143.52C332.851 144.88 332.105 147.907 331.038 152.6C330.905 153.16 330.825 153.64 330.798 154.04C330.691 154.627 330.585 155.04 330.478 155.28C330.371 155.52 330.158 155.693 329.838 155.8C329.518 155.907 328.998 155.96 328.278 155.96C326.438 155.96 325.518 155.587 325.518 154.84C325.678 154.44 325.931 153.52 326.278 152.08C326.625 150.613 326.878 149.587 327.038 149C327.518 146.893 328.091 144.56 328.758 142C328.758 141.76 328.651 141.56 328.438 141.4C328.225 141.24 327.985 141.16 327.718 141.16C326.758 141.16 325.771 141.56 324.758 142.36C323.771 143.16 323.011 144.013 322.478 144.92C322.105 146.36 321.678 147.987 321.198 149.8C320.745 151.587 320.398 153.027 320.158 154.12C319.998 154.867 319.731 155.387 319.358 155.68C318.985 155.973 318.345 156.12 317.438 156.12C316.665 156.12 316.078 156.027 315.678 155.84C315.278 155.627 315.078 155.227 315.078 154.64C315.078 154.347 315.411 152.787 316.078 149.96C316.771 147.133 317.705 143.453 318.878 138.92ZM351.021 132.24C351.021 131.413 351.274 130.68 351.781 130.04C352.314 129.4 353.048 129.08 353.981 129.08C354.968 129.08 355.821 129.387 356.541 130C357.288 130.613 357.661 131.307 357.661 132.08C357.661 132.853 357.288 133.52 356.541 134.08C355.794 134.64 354.928 134.92 353.941 134.92C352.981 134.92 352.248 134.68 351.741 134.2C351.261 133.693 351.021 133.04 351.021 132.24ZM355.221 139.32C353.808 145.08 352.728 149.413 351.981 152.32C351.874 152.747 351.821 153.213 351.821 153.72L351.861 154.84C351.861 155.293 351.714 155.613 351.421 155.8C351.154 155.987 350.568 156.093 349.661 156.12C348.781 156.12 348.114 156.027 347.661 155.84C347.208 155.653 346.981 155.253 346.981 154.64C346.981 154.347 347.314 152.787 347.981 149.96C348.674 147.133 349.608 143.453 350.781 138.92L349.861 137.72C349.781 137.64 349.741 137.547 349.741 137.44C349.741 137.173 350.034 136.96 350.621 136.8C351.208 136.613 352.021 136.52 353.061 136.52C353.968 136.52 354.541 136.787 354.781 137.32C355.048 137.827 355.194 138.493 355.221 139.32ZM361.436 136.6C362.689 135.933 363.729 135.6 364.556 135.6C365.462 135.6 365.969 136.067 366.076 137L364.476 142.96C366.236 140.427 367.876 138.68 369.396 137.72C370.916 136.733 372.276 136.24 373.476 136.24C374.889 136.24 375.916 136.507 376.556 137.04C377.222 137.547 377.569 138.36 377.596 139.48C376.689 141.933 375.929 144.267 375.316 146.48C374.729 148.693 374.436 150.733 374.436 152.6V153.52C374.436 154.267 374.222 154.76 373.796 155C373.396 155.213 372.582 155.32 371.356 155.32C370.876 155.32 370.422 155.24 369.996 155.08C369.596 154.92 369.396 154.653 369.396 154.28C369.396 153.213 369.636 151.653 370.116 149.6C370.596 147.547 371.129 145.52 371.716 143.52C372.329 141.52 372.636 140.573 372.636 140.68C372.636 140.307 372.422 140.12 371.996 140.12C371.436 140.12 370.529 140.613 369.276 141.6C368.022 142.587 366.742 144.133 365.436 146.24C364.129 148.32 363.089 150.933 362.316 154.08C362.289 154.24 362.236 154.533 362.156 154.96C362.076 155.387 361.862 155.693 361.516 155.88C361.169 156.04 360.609 156.12 359.836 156.12C358.956 156.12 358.302 156.027 357.876 155.84C357.449 155.653 357.236 155.253 357.236 154.64L358.436 149.52C358.756 148.133 359.169 146.373 359.676 144.24C360.182 142.08 360.769 139.533 361.436 136.6ZM390.785 134C390.785 133.627 390.892 133.333 391.105 133.12C391.345 132.88 391.665 132.667 392.065 132.48C392.198 132.4 392.678 132.16 393.505 131.76C394.358 131.36 395.172 131.053 395.945 130.84C396.185 130.307 396.545 129.867 397.025 129.52C397.532 129.173 398.172 129 398.945 129C399.398 129 399.772 129.093 400.065 129.28C400.358 129.44 400.558 129.653 400.665 129.92C401.652 129.6 402.838 129.44 404.225 129.44C405.958 129.44 407.452 129.813 408.705 130.56C409.985 131.28 410.945 132.28 411.585 133.56C412.252 134.84 412.585 136.28 412.585 137.88C412.585 138.2 412.545 138.64 412.465 139.2C411.372 145.44 406.705 148.56 398.465 148.56C397.718 148.56 397.172 148.547 396.825 148.52L396.305 150.44C395.745 152.493 395.465 153.547 395.465 153.6C395.252 154.533 394.918 155.253 394.465 155.76C394.038 156.267 393.332 156.52 392.345 156.52C391.518 156.52 390.905 156.373 390.505 156.08C390.132 155.813 389.945 155.347 389.945 154.68C389.945 154.387 389.985 154.107 390.065 153.84L394.905 135.16C393.518 135.56 392.465 136.107 391.745 136.8C391.452 136.48 391.212 136.067 391.025 135.56C390.865 135.027 390.785 134.507 390.785 134ZM397.665 144.8C397.985 144.827 398.438 144.84 399.025 144.84C401.558 144.84 403.558 144.36 405.025 143.4C406.518 142.44 407.478 140.96 407.905 138.96C407.985 138.507 408.025 138.173 408.025 137.96C408.025 136.467 407.612 135.36 406.785 134.64C405.958 133.893 404.798 133.52 403.305 133.52C402.505 133.52 401.478 133.707 400.225 134.08C399.185 138.213 398.332 141.787 397.665 144.8ZM429.802 155.32C429.615 155.8 429.175 156.12 428.482 156.28C427.815 156.467 427.229 156.56 426.722 156.56C426.242 156.56 425.922 156.44 425.762 156.2C425.629 155.987 425.509 155.653 425.402 155.2C425.295 154.747 425.229 154.44 425.202 154.28C424.055 155.053 422.882 155.64 421.682 156.04C420.509 156.467 419.522 156.68 418.722 156.68C418.029 156.68 417.242 156.453 416.362 156C415.509 155.547 414.775 154.933 414.162 154.16C413.549 153.387 413.242 152.533 413.242 151.6C413.242 150.107 413.735 148.2 414.722 145.88C415.709 143.56 417.095 141.533 418.882 139.8C420.695 138.067 422.802 137.2 425.202 137.2C427.309 137.2 429.189 137.533 430.842 138.2C432.495 138.867 433.322 139.813 433.322 141.04C432.575 142.427 431.762 144.507 430.882 147.28C430.029 150.053 429.602 152.107 429.602 153.44C429.602 154.32 429.669 154.947 429.802 155.32ZM425.282 150.92C425.495 149.747 425.855 148.36 426.362 146.76C426.895 145.133 427.602 143.507 428.482 141.88C428.349 141.347 427.922 141 427.202 140.84C426.509 140.653 425.882 140.56 425.322 140.56C424.335 140.56 423.269 141.227 422.122 142.56C420.975 143.893 419.989 145.453 419.162 147.24C418.362 149 417.962 150.427 417.962 151.52C417.962 152.053 418.109 152.44 418.402 152.68C418.695 152.893 419.069 153 419.522 153C420.135 153 421.109 152.773 422.442 152.32C423.802 151.84 424.749 151.373 425.282 150.92ZM436.48 137.72C436.4 137.64 436.36 137.547 436.36 137.44C436.36 137.173 436.653 136.96 437.24 136.8C437.827 136.613 438.64 136.52 439.68 136.52C440.64 136.52 441.347 136.773 441.8 137.28C442.253 137.76 442.52 138.347 442.6 139.04L441.88 141.64C442.44 140.867 443.227 140.133 444.24 139.44C445.253 138.72 446.28 138.147 447.32 137.72C448.36 137.293 449.213 137.08 449.88 137.08C451.293 137.08 452.32 137.347 452.96 137.88C453.6 138.387 453.92 139.2 453.92 140.32C452.347 144.427 451.307 148.853 450.8 153.6L451.36 155.56C451.04 156.173 450.587 156.653 450 157C449.44 157.373 448.613 157.56 447.52 157.56C446.88 157.56 446.413 157.347 446.12 156.92C445.827 156.493 445.68 155.96 445.68 155.32C445.68 153.533 445.933 151.573 446.44 149.44C446.973 147.28 447.587 145.08 448.28 142.84C448.547 141.987 448.68 141.547 448.68 141.52C448.68 141.147 448.467 140.96 448.04 140.96C447.453 140.96 446.56 141.373 445.36 142.2C444.187 143.027 442.973 144.427 441.72 146.4C440.467 148.347 439.453 150.907 438.68 154.08C438.627 154.24 438.56 154.533 438.48 154.96C438.4 155.387 438.187 155.693 437.84 155.88C437.493 156.04 436.933 156.12 436.16 156.12C435.28 156.12 434.627 156.027 434.2 155.84C433.8 155.653 433.6 155.253 433.6 154.64C433.68 154.267 433.8 153.813 433.96 153.28C435.507 147.067 436.693 142.28 437.52 138.92L436.48 137.72ZM462.923 156.84C460.283 156.84 458.349 156.32 457.123 155.28C455.923 154.24 455.323 152.853 455.323 151.12C455.323 148.533 455.856 146.187 456.923 144.08C457.989 141.947 459.469 140.28 461.363 139.08C463.256 137.853 465.416 137.24 467.843 137.24C469.363 137.24 470.629 137.667 471.643 138.52C472.683 139.373 473.203 140.64 473.203 142.32C473.203 144.107 472.616 145.507 471.443 146.52C470.296 147.533 468.789 148.267 466.923 148.72C465.083 149.147 462.763 149.493 459.963 149.76C459.883 150.107 459.843 150.52 459.843 151C459.843 151.747 460.163 152.32 460.803 152.72C461.443 153.12 462.336 153.32 463.483 153.32C464.309 153.32 465.269 153.147 466.363 152.8C467.483 152.453 468.336 151.88 468.923 151.08C469.269 150.627 469.669 150.267 470.123 150C470.603 149.733 471.069 149.6 471.523 149.6C471.949 149.6 472.296 149.747 472.563 150.04C472.856 150.307 473.003 150.72 473.003 151.28C472.709 152.133 472.096 153 471.163 153.88C470.229 154.733 469.043 155.44 467.603 156C466.189 156.56 464.629 156.84 462.923 156.84ZM461.003 146.08C462.709 146.053 464.456 145.733 466.243 145.12C468.029 144.48 468.923 143.373 468.923 141.8C468.923 141.427 468.749 141.147 468.403 140.96C468.056 140.747 467.683 140.64 467.283 140.64C466.509 140.64 465.696 140.933 464.843 141.52C464.016 142.08 463.256 142.787 462.563 143.64C461.869 144.467 461.349 145.28 461.003 146.08ZM484.1 135.76C481.326 147.44 479.713 154.04 479.26 155.56C479.206 155.72 478.926 155.92 478.42 156.16C477.94 156.427 477.606 156.56 477.42 156.56C476.726 156.56 476.1 156.387 475.54 156.04C474.98 155.72 474.673 155.147 474.62 154.32C474.646 154.187 474.713 153.813 474.82 153.2C474.926 152.587 475.073 151.92 475.26 151.2C476.273 147.387 477.446 142.72 478.78 137.2L480.7 129.48C480.673 129.32 480.66 129.093 480.66 128.8C480.66 127.76 480.953 126.867 481.54 126.12C482.153 125.373 482.846 125 483.62 125C484.126 125 484.606 125.2 485.06 125.6C485.513 125.973 485.873 126.547 486.14 127.32L484.1 135.76Z" fill="#0037F8"/>
<defs>
<filter id="filter0_i_17_70" x="41.0312" y="8.5" width="160.25" height="145.5" filterUnits="userSpaceOnUse" color-interpolation-filters="sRGB">
<feFlood flood-opacity="0" result="BackgroundImageFix"/>
<feBlend mode="normal" in="SourceGraphic" in2="BackgroundImageFix" result="shape"/>
<feColorMatrix in="SourceAlpha" type="matrix" values="0 0 0 0 0 0 0 0 0 0 0 0 0 0 0 0 0 0 127 0" result="hardAlpha"/>
<feOffset dy="4"/>
<feGaussianBlur stdDeviation="2"/>
<feComposite in2="hardAlpha" operator="arithmetic" k2="-1" k3="1"/>
<feColorMatrix type="matrix" values="0 0 0 0 0 0 0 0 0 0 0 0 0 0 0 0 0 0 0.25 0"/>
<feBlend mode="normal" in2="shape" result="effect1_innerShadow_17_70"/>
</filter>
</defs>
</svg>
